<svg width="56" height="42" viewBox="0 0 56 42" fill="none" xmlns="http://www.w3.org/2000/svg">
<path fill-rule="evenodd" clip-rule="evenodd" d="M23.3108 19.6564C23.5857 19.2865 24.1084 19.2094 24.4783 19.4843L27.0042 21.3614C27.3741 21.6362 27.4511 22.159 27.1763 22.5289C26.9014 22.8988 26.3787 22.9758 26.0088 22.7009L25.0998 22.0255L25.7794 26.6368C25.8466 27.0928 25.5315 27.5169 25.0755 27.5841C24.6196 27.6513 24.1955 27.3361 24.1283 26.8802L23.4487 22.2688L22.7733 23.1777C22.4984 23.5476 21.9757 23.6247 21.6058 23.3498C21.2359 23.0749 21.1589 22.5522 21.4338 22.1823L23.3108 19.6564Z" fill="#8F81D8"/>
<path d="M12.4518 10.6067L16.8547 9.95783C21.0059 9.34608 23.0814 9.0402 24.5611 10.1397C25.6264 10.9314 26.0833 12.2291 26.4839 14.4431L4.52587 17.6791C4.2708 15.4436 4.33389 14.0693 5.12557 13.004C6.22512 11.5243 8.30068 11.2184 12.4518 10.6067Z" fill="#8F81D8"/>
<path fill-rule="evenodd" clip-rule="evenodd" d="M15.0473 28.2185L19.4502 27.5696C20.6125 27.3983 21.6121 27.251 22.473 27.0952L22.1911 25.182C21.643 25.2015 21.0848 25.0419 20.6104 24.6893C19.5006 23.8647 19.2695 22.2966 20.0942 21.1868L21.9712 18.6609C22.7959 17.5512 24.364 17.3201 25.4738 18.1448L27.2453 19.4613C27.163 18.8544 27.0653 18.1919 26.9583 17.466C26.8867 16.9795 26.8192 16.5216 26.7535 16.0904L4.74297 19.3341C4.80448 19.7659 4.87197 20.2238 4.94366 20.7103C5.55541 24.8614 5.86129 26.937 7.34093 28.0365C8.82057 29.1361 10.8961 28.8302 15.0473 28.2185ZM9.16991 24.586C9.10272 24.1301 9.41786 23.706 9.8738 23.6388L14.2767 22.99C14.7327 22.9228 15.1568 23.2379 15.2239 23.6938C15.2911 24.1498 14.976 24.5739 14.5201 24.6411L10.1171 25.2899C9.66118 25.3571 9.2371 25.042 9.16991 24.586ZM17.0286 22.5844C16.5726 22.6516 16.2575 23.0757 16.3247 23.5316C16.3919 23.9876 16.816 24.3027 17.2719 24.2355L18.923 23.9922C19.3789 23.925 19.6941 23.5009 19.6269 23.045C19.5597 22.589 19.1356 22.2739 18.6797 22.3411L17.0286 22.5844Z" fill="#8F81D8"/>
<path fill-rule="evenodd" clip-rule="evenodd" d="M45.718 23.8603C46.2167 23.4254 46.9736 23.4771 47.4084 23.9759L50.3779 27.3813C50.8128 27.88 50.761 28.6369 50.2623 29.0717C49.7636 29.5066 49.0068 29.4548 48.5719 28.9561L47.5034 27.7307L47.0468 34.4074C47.0016 35.0676 46.4299 35.5661 45.7697 35.521C45.1096 35.4758 44.611 34.9041 44.6562 34.2439L45.1128 27.5672L43.8874 28.6358C43.3886 29.0706 42.6318 29.0189 42.197 28.5202C41.7621 28.0214 41.8138 27.2646 42.3126 26.8297L45.718 23.8603Z" fill="#4633AF"/>
<path d="M33.2517 7.84496L39.6267 8.28094C45.637 8.69197 48.6422 8.89749 50.3817 10.8924C51.6341 12.3287 51.8783 14.2888 51.7634 17.5172L19.9706 15.3429C20.2963 12.1289 20.805 10.2203 22.2413 8.96789C24.2362 7.22841 27.2414 7.43393 33.2517 7.84496Z" fill="#4633AF"/>
<path fill-rule="evenodd" clip-rule="evenodd" d="M31.5078 33.3448L37.8828 33.7807C39.5656 33.8958 41.0129 33.9948 42.2684 34.0395L42.4578 31.2693C41.683 31.1292 40.9487 30.7346 40.3909 30.095C39.0863 28.5988 39.2416 26.3283 40.7378 25.0237L44.1432 22.0542C45.6394 20.7496 47.9098 20.9049 49.2144 22.4011L51.2972 24.7895C51.3671 23.913 51.4327 22.9538 51.5046 21.9028C51.5528 21.1984 51.5981 20.5354 51.6379 19.9104L19.7691 17.731C19.7234 18.3555 19.6781 19.0186 19.6299 19.7229C19.2189 25.7333 19.0133 28.7385 20.7528 30.7333C22.4923 32.7282 25.4975 32.9337 31.5078 33.3448ZM24.3736 26.4521C24.4187 25.7919 24.9905 25.2934 25.6506 25.3385L32.0256 25.7745C32.6857 25.8196 33.1843 26.3914 33.1391 27.0516C33.094 27.7117 32.5222 28.2103 31.8621 28.1651L25.4871 27.7291C24.827 27.684 24.3284 27.1122 24.3736 26.4521ZM36.0099 26.047C35.3497 26.0018 34.778 26.5004 34.7328 27.1605C34.6877 27.8207 35.1863 28.3924 35.8464 28.4376L38.237 28.6011C38.8972 28.6462 39.4689 28.1477 39.5141 27.4875C39.5592 26.8274 39.0606 26.2556 38.4005 26.2105L36.0099 26.047Z" fill="#4633AF"/>
</svg>
