<svg width="48" height="37" viewBox="0 0 48 37" fill="none" xmlns="http://www.w3.org/2000/svg">
<g clip-path="url(#clip0_1092_25715)">
<path fill-rule="evenodd" clip-rule="evenodd" d="M5.9118 8.77307L15.9854 7.17227C16.2605 7.12855 16.3981 7.10669 16.5158 7.09891C17.8237 7.01238 19.0162 7.9223 19.3439 9.25691C19.3734 9.37698 19.3963 9.52132 19.4422 9.80999L21.5274 22.9316C21.6506 23.7072 20.7619 24.1858 20.2198 23.6358C19.8437 23.2543 19.2283 23.3521 18.989 23.8314L18.6899 24.4305C18.3011 25.2094 17.3012 25.3683 16.69 24.7483C16.0789 24.1284 15.079 24.2873 14.6901 25.0661C14.3013 25.845 13.3013 26.0039 12.6902 25.384C12.0791 24.764 11.0792 24.9229 10.6903 25.7018C10.3015 26.4806 9.30154 26.6395 8.69041 26.0196L8.22032 25.5427C7.84425 25.1611 7.22889 25.2589 6.98961 25.7382C6.64468 26.4292 5.65136 26.2496 5.52811 25.474L3.44295 12.3524C3.39708 12.0638 3.37414 11.9194 3.36495 11.7961C3.26281 10.4257 4.11448 9.19092 5.3848 8.86773C5.49909 8.83866 5.63666 8.8168 5.9118 8.77307ZM10.4149 13.042C10.1132 12.823 9.69108 12.8901 9.47211 13.1918C9.25314 13.4935 9.32022 13.9156 9.62193 14.1345L11.1358 15.2333L10.0371 16.7472C9.81815 17.0489 9.88522 17.471 10.1869 17.6899C10.4886 17.9089 10.9107 17.8418 11.1297 17.5401L12.2284 16.0262L13.7423 17.1249C14.044 17.3439 14.4661 17.2768 14.685 16.9751C14.904 16.6734 14.8369 16.2513 14.5352 16.0323L13.0214 14.9336L14.1201 13.4197C14.339 13.118 14.272 12.696 13.9703 12.477C13.6686 12.258 13.2465 12.3251 13.0275 12.6268L11.9288 14.1407L10.4149 13.042ZM8.74969 19.9411C8.38151 19.9996 8.13048 20.3455 8.18899 20.7137C8.24749 21.0818 8.59338 21.3329 8.96156 21.2744L16.9612 20.0031C17.3294 19.9446 17.5804 19.5987 17.5219 19.2306C17.4634 18.8624 17.1175 18.6114 16.7493 18.6699L8.74969 19.9411Z" fill="#CE7C7C"/>
</g>
<path fill-rule="evenodd" clip-rule="evenodd" d="M21.5 3.5H38.5C38.9643 3.5 39.1965 3.5 39.3922 3.51797C41.5677 3.71766 43.2925 5.52732 43.4829 7.80982C43.5 8.01517 43.5 8.25875 43.5 8.7459V30.8897C43.5 32.1985 41.9119 32.7539 41.1635 31.7068C40.6442 30.9805 39.6058 30.9805 39.0865 31.7068L38.4375 32.6148C37.5938 33.7951 35.9062 33.7951 35.0625 32.6148C34.2188 31.4344 32.5312 31.4344 31.6875 32.6148C30.8438 33.7951 29.1562 33.7951 28.3125 32.6148C27.4688 31.4344 25.7812 31.4344 24.9375 32.6148C24.0938 33.7951 22.4062 33.7951 21.5625 32.6148L20.9135 31.7068C20.3942 30.9805 19.3558 30.9805 18.8365 31.7068C18.0881 32.7539 16.5 32.1985 16.5 30.8897V8.7459C16.5 8.25875 16.5 8.01517 16.5171 7.80982C16.7075 5.52732 18.4323 3.71766 20.6078 3.51797C20.8035 3.5 21.0357 3.5 21.5 3.5ZM27.7955 11.7045C27.3562 11.2652 26.6439 11.2652 26.2045 11.7045C25.7652 12.1438 25.7652 12.8562 26.2045 13.2955L28.409 15.5L26.2046 17.7045C25.7652 18.1438 25.7652 18.8562 26.2046 19.2955C26.6439 19.7348 27.3562 19.7348 27.7955 19.2955L30 17.091L32.2045 19.2955C32.6438 19.7348 33.3562 19.7348 33.7955 19.2955C34.2348 18.8561 34.2348 18.1438 33.7955 17.7045L31.591 15.5L33.7955 13.2955C34.2349 12.8562 34.2349 12.1439 33.7955 11.7045C33.3562 11.2652 32.6439 11.2652 32.2045 11.7045L30 13.909L27.7955 11.7045ZM23.25 22.625C22.6287 22.625 22.125 23.1287 22.125 23.75C22.125 24.3713 22.6287 24.875 23.25 24.875H36.75C37.3713 24.875 37.875 24.3713 37.875 23.75C37.875 23.1287 37.3713 22.625 36.75 22.625H23.25Z" fill="#9D2626"/>
<defs>
<clipPath id="clip0_1092_25715">
<rect width="21.6" height="21.6" fill="white" transform="translate(0 7.88989) rotate(-9.02939)"/>
</clipPath>
</defs>
</svg>
