<svg width="54" height="41" viewBox="0 0 54 41" fill="none" xmlns="http://www.w3.org/2000/svg">
<g clip-path="url(#clip0_1092_25717)">
<path fill-rule="evenodd" clip-rule="evenodd" d="M30.0898 29.1993C30.5191 29.5066 31.1162 29.4077 31.4236 28.9784L33.522 26.0469C33.8293 25.6176 33.7304 25.0204 33.3011 24.7131C32.8718 24.4058 32.2747 24.5047 31.9673 24.934L31.2122 25.9889L30.3397 20.7208C30.2535 20.1999 29.7613 19.8476 29.2404 19.9339C28.7196 20.0201 28.3672 20.5123 28.4535 21.0332L29.326 26.3013L28.2711 25.5462C27.8418 25.2389 27.2447 25.3378 26.9374 25.7671C26.63 26.1964 26.7289 26.7935 27.1583 27.1008L30.0898 29.1993Z" fill="#CAA679"/>
<path d="M15.9965 10.1764L21.0265 9.34335C25.7688 8.55793 28.14 8.16522 29.8572 9.39447C31.0936 10.2795 31.6434 11.7566 32.1475 14.2844L7.06225 18.439C6.72447 15.8836 6.7687 14.3082 7.65377 13.0718C8.88302 11.3545 11.2542 10.9618 15.9965 10.1764Z" fill="#CAA679"/>
<path fill-rule="evenodd" clip-rule="evenodd" d="M19.3287 30.2964L24.3587 29.4633C25.188 29.3259 25.9448 29.2006 26.6357 29.0781L26.0454 28.6555C24.7574 27.7336 24.4607 25.9421 25.3827 24.6542C25.7768 24.1036 26.3299 23.7341 26.9346 23.5636L26.5673 21.3456C26.3085 19.783 27.3654 18.3064 28.928 18.0476C30.4906 17.7888 31.9672 18.8458 32.226 20.4084L32.5933 22.6264C32.88 22.6111 33.1699 22.6386 33.4527 22.7105C33.3601 21.4055 33.0933 19.7945 32.7526 17.7372C32.6605 17.1815 32.5739 16.6583 32.4899 16.1657L7.34468 20.3302C7.42396 20.8236 7.51061 21.3468 7.60265 21.9025C8.38806 26.6448 8.78077 29.016 10.498 30.2452C12.2153 31.4745 14.5864 31.0818 19.3287 30.2964ZM13.3095 25.1563C12.7886 25.2426 12.4363 25.7348 12.5226 26.2556C12.6088 26.7765 13.101 27.1288 13.6219 27.0426L18.6519 26.2095C19.1728 26.1232 19.5251 25.631 19.4388 25.1102C19.3525 24.5893 18.8604 24.237 18.3395 24.3232L13.3095 25.1563ZM21.4832 23.8026C20.9624 23.8888 20.61 24.381 20.6963 24.9019C20.7826 25.4228 21.2748 25.7751 21.7956 25.6888L23.6819 25.3764C24.2027 25.2902 24.5551 24.798 24.4688 24.2771C24.3825 23.7562 23.8903 23.4039 23.3695 23.4902L21.4832 23.8026Z" fill="#CAA679"/>
</g>
<path fill-rule="evenodd" clip-rule="evenodd" d="M43.0627 36.2632C43.4446 36.794 44.1845 36.9148 44.7153 36.5328L48.34 33.925C48.8708 33.5431 48.9915 32.8032 48.6096 32.2724C48.2277 31.7416 47.4878 31.6209 46.957 32.0028L45.6527 32.9412L46.7177 26.4137C46.823 25.7683 46.3852 25.1597 45.7398 25.0544C45.0944 24.9491 44.4858 25.387 44.3805 26.0324L43.3155 32.5598L42.3772 31.2556C41.9952 30.7247 41.2553 30.604 40.7245 30.9859C40.1937 31.3678 40.073 32.1077 40.4549 32.6386L43.0627 36.2632Z" fill="#935E23"/>
<path d="M34.0682 8.35391L40.3007 9.37077C46.1767 10.3295 49.1147 10.8088 50.6423 12.9321C51.7422 14.4609 51.8017 16.412 51.3909 19.5781L20.3087 14.5068C20.9256 11.3744 21.6021 9.54336 23.1309 8.44347C25.2542 6.91585 28.1922 7.39521 34.0682 8.35391Z" fill="#935E23"/>
<path fill-rule="evenodd" clip-rule="evenodd" d="M30.0008 33.2838L36.2332 34.3006C37.2608 34.4683 38.1985 34.6213 39.0578 34.7515L38.5326 34.0215C37.3869 32.4291 37.7491 30.2094 39.3415 29.0636C40.0223 28.5738 40.8178 28.3596 41.595 28.3993L42.0433 25.651C42.3592 23.7148 44.1849 22.4014 46.1211 22.7172C48.0573 23.0331 49.3708 24.8588 49.0549 26.795L48.6065 29.5433C48.9489 29.639 49.2782 29.7861 49.5815 29.9827C49.9903 28.4147 50.316 26.4185 50.7319 23.8694C50.8442 23.1808 50.95 22.5326 51.0467 21.9213L19.8903 16.838C19.7877 17.4483 19.6819 18.0965 19.5696 18.7851C18.6108 24.6612 18.1315 27.5992 19.6591 29.7224C21.1867 31.8457 24.1247 32.3251 30.0008 33.2838ZM24.9758 24.8659C24.3304 24.7606 23.7219 25.1984 23.6166 25.8438C23.5113 26.4892 23.9491 27.0977 24.5945 27.203L30.827 28.2199C31.4724 28.3252 32.0809 27.8874 32.1862 27.242C32.2915 26.5966 31.8537 25.988 31.2083 25.8827L24.9758 24.8659ZM35.1036 26.5183C34.4582 26.413 33.8496 26.8508 33.7443 27.4962C33.639 28.1416 34.0769 28.7501 34.7223 28.8554L37.0594 29.2368C37.7048 29.3421 38.3134 28.9042 38.4187 28.2588C38.524 27.6134 38.0862 27.0049 37.4408 26.8996L35.1036 26.5183Z" fill="#935E23"/>
<defs>
<clipPath id="clip0_1092_25717">
<rect width="30.591" height="30.591" fill="white" transform="translate(0.715698 10.2444) rotate(-18.6704)"/>
</clipPath>
</defs>
</svg>
